<svg width="239" height="61" viewBox="0 0 239 61" fill="none" xmlns="http://www.w3.org/2000/svg">
<g clip-path="url(#clip0_363:154)">
<path d="M44.1954 30.3793C44.1954 26.2901 44.253 22.1973 44.1413 18.1081C44.1197 17.3753 43.5647 16.353 42.952 15.9829C34.1222 10.6699 25.2491 5.42658 16.3472 0.234516C15.8138 -0.0769348 14.8155 -0.0879271 14.2857 0.216195C9.88526 2.71513 5.52441 5.28734 1.21042 7.94017C0.633781 8.29559 0.0535369 9.21894 0.0535369 9.88582C-0.0113352 23.4394 -0.0113352 36.993 0.0535369 50.5466C0.0571409 51.2208 0.58693 52.1661 1.15636 52.5179C5.46675 55.1744 9.86363 57.6843 14.192 60.3115C15.0534 60.8354 15.6481 60.7585 16.4662 60.2712C25.2635 55.0205 34.0753 49.7954 42.9123 44.607C43.8746 44.0428 44.2422 43.4052 44.2242 42.2877C44.1629 38.3157 44.1954 34.3475 44.1954 30.3793ZM36.4792 38.1912C36.472 38.7298 36.0575 39.4956 35.607 39.7667C29.1487 43.658 22.6615 47.5017 16.1454 51.2941C15.6985 51.5542 14.866 51.5212 14.3939 51.2684C12.5306 50.2828 10.7718 49.0919 8.91218 48.1026C7.91026 47.5676 7.62915 46.8751 7.63636 45.7759C7.68682 40.5838 7.65799 35.3881 7.65799 30.196C7.66159 30.196 7.66159 30.196 7.66519 30.196C7.66519 25.004 7.61834 19.8083 7.71925 14.6162C7.73367 13.8907 8.3031 12.9307 8.90497 12.5057C10.6313 11.2965 12.4765 10.2486 14.347 9.27757C14.8624 9.01009 15.767 8.99543 16.2607 9.28123C22.7335 13.026 29.1739 16.8293 35.5854 20.684C36.0395 20.9551 36.4648 21.7099 36.472 22.2449C36.5405 27.5615 36.5441 32.8782 36.4792 38.1912Z" fill="#2A1136"/>
<path d="M23.0661 22.2488C24.9978 23.392 26.6557 24.341 28.2739 25.3596C28.573 25.5465 28.8649 26.0155 28.8722 26.3599C28.9226 28.9212 28.9226 31.486 28.8794 34.0509C28.8722 34.41 28.6343 34.9157 28.3496 35.0952C26.6881 36.1431 24.9798 37.1141 23.0625 38.2463C23.0661 32.8271 23.0661 27.7303 23.0661 22.2488Z" fill="#2A1136"/>
</g>
<path d="M78.8074 17.0117C80.6219 17.0117 82.3091 17.3618 83.9326 18.0302C85.5561 18.6986 86.9249 19.6535 88.1028 20.863C89.2806 22.0725 90.2356 23.473 90.9041 25.0644C91.5726 26.6558 91.9228 28.3746 91.9228 30.1888C91.9228 32.0349 91.5726 33.7218 90.9041 35.3133C90.2356 36.9047 89.2806 38.3052 88.1028 39.5147C86.9249 40.7242 85.5242 41.6472 83.9326 42.3474C82.3409 43.0477 80.6219 43.3659 78.8074 43.3659H68.9072V17.0117H78.8074ZM78.8074 38.9736C80.0171 38.9736 81.1312 38.7508 82.2136 38.2733C83.2959 37.7959 84.1872 37.1912 84.9831 36.3954C85.7789 35.5997 86.4156 34.6767 86.8612 33.5945C87.3069 32.5442 87.5616 31.3983 87.5616 30.1888C87.5616 28.9793 87.3388 27.8335 86.8612 26.7832C86.4156 25.701 85.7789 24.7779 84.9831 24.0141C84.1872 23.2502 83.2641 22.5818 82.2136 22.1362C81.1631 21.6905 79.9852 21.4359 78.8074 21.4359H73.3002V39.0054L78.8074 38.9736Z" fill="#2A1136"/>
<path d="M100.167 35.6934C100.517 36.7756 101.154 37.635 102.045 38.3352C102.936 39.0355 103.987 39.3538 105.196 39.3538C105.992 39.3538 106.724 39.1946 107.393 38.8763C108.061 38.558 108.634 38.1443 109.144 37.6032L112.805 40.054C111.913 41.1998 110.799 42.091 109.494 42.7594C108.189 43.4278 106.756 43.7461 105.196 43.7461C103.859 43.7461 102.618 43.4915 101.44 42.9822C100.262 42.473 99.2118 41.7727 98.3523 40.9134C97.4928 40.054 96.7925 39.0036 96.2831 37.826C95.7738 36.6483 95.4873 35.3752 95.4873 34.0383C95.4873 32.7015 95.742 31.4602 96.2513 30.2825C96.7606 29.1049 97.461 28.0545 98.3205 27.1952C99.18 26.3358 100.23 25.6355 101.408 25.1263C102.586 24.617 103.859 24.3306 105.196 24.3306C106.533 24.3306 107.807 24.5852 108.985 25.0945C110.162 25.6037 111.181 26.304 112.072 27.1633C112.964 28.0545 113.632 29.0731 114.142 30.2507C114.651 31.4284 114.906 32.7015 114.906 34.0065C114.906 34.293 114.906 34.5476 114.874 34.8341C114.842 35.0887 114.81 35.3752 114.746 35.6616H100.167V35.6934ZM110.162 32.2241C109.812 31.2056 109.176 30.378 108.284 29.7096C107.393 29.0412 106.342 28.7229 105.196 28.7229C104.05 28.7229 103.032 29.0412 102.109 29.7096C101.217 30.3462 100.549 31.2056 100.167 32.2241H110.162Z" fill="#2A1136"/>
<path d="M131.714 32.7344C131.714 32.1615 131.619 31.6522 131.396 31.1748C131.173 30.6974 130.887 30.2518 130.537 29.9016C130.186 29.5197 129.741 29.2332 129.263 29.0423C128.786 28.8513 128.245 28.724 127.672 28.724C127.099 28.724 126.589 28.8195 126.112 29.0423C125.634 29.2332 125.22 29.5197 124.838 29.9016C124.488 30.2836 124.202 30.6974 123.979 31.1748C123.756 31.6522 123.661 32.1933 123.661 32.7344V43.3652H119.268V17.011H123.661V25.6366C124.743 24.7772 126.08 24.3316 127.672 24.3316C128.849 24.3316 129.932 24.5544 130.95 25C131.969 25.4456 132.86 26.0504 133.624 26.8142C134.388 27.5781 134.993 28.4693 135.439 29.4879C135.885 30.5064 136.107 31.5886 136.107 32.7344V43.3652H131.714V32.7344Z" fill="#2A1136"/>
<path d="M145.562 17.011V21.4034H141.169V17.011H145.562ZM141.233 24.6817H145.594L145.562 43.3652H141.169L141.233 24.6817Z" fill="#2A1136"/>
<path d="M159.791 43.7472C158.454 43.7472 157.213 43.4925 156.035 42.9833C154.857 42.474 153.807 41.7738 152.947 40.9144C152.088 40.055 151.387 39.0047 150.878 37.827C150.369 36.6493 150.082 35.3762 150.082 34.0394C150.082 32.7026 150.337 31.4294 150.846 30.2518C151.355 29.0741 152.056 28.0556 152.915 27.1644C153.775 26.2732 154.825 25.6048 156.003 25.0955C157.181 24.5862 158.454 24.3316 159.759 24.3316C160.874 24.3316 161.892 24.5226 162.752 24.8727C163.643 25.2228 164.407 25.7321 165.076 26.3686V17.011H169.469V43.3652H165.076V41.7101C164.407 42.3467 163.643 42.856 162.752 43.2061C161.892 43.5562 160.905 43.7472 159.791 43.7472ZM159.791 28.724C159.059 28.724 158.359 28.8513 157.722 29.1378C157.085 29.4242 156.512 29.8062 156.035 30.2518C155.557 30.7292 155.175 31.2703 154.921 31.9387C154.666 32.6071 154.507 33.2755 154.507 34.0076C154.507 34.7078 154.634 35.408 154.921 36.0446C155.207 36.6812 155.589 37.2541 156.035 37.7315C156.512 38.209 157.054 38.5909 157.722 38.8774C158.359 39.1638 159.059 39.2911 159.791 39.2911C160.523 39.2911 161.224 39.1638 161.86 38.8774C162.497 38.5909 163.07 38.209 163.548 37.7315C164.025 37.2541 164.407 36.7448 164.662 36.0764C164.948 35.4398 165.076 34.7396 165.076 34.0394C165.076 33.3073 164.948 32.6071 164.662 31.9705C164.375 31.3339 163.993 30.761 163.548 30.2836C163.102 29.8062 162.529 29.4242 161.86 29.1696C161.192 28.915 160.523 28.724 159.791 28.724Z" fill="#2A1136"/>
<path d="M183.73 43.7472C182.393 43.7472 181.152 43.4925 179.974 42.9833C178.796 42.474 177.745 41.7738 176.886 40.9144C176.026 40.055 175.326 39.0047 174.817 37.827C174.307 36.6493 174.053 35.3762 174.053 34.0712C174.053 32.7344 174.307 31.4613 174.817 30.2836C175.326 29.1059 176.026 28.0874 176.886 27.1962C177.745 26.305 178.796 25.6366 179.974 25.1273C181.152 24.6181 182.425 24.3634 183.73 24.3634C184.844 24.3634 185.863 24.5544 186.722 24.9045C187.614 25.2546 188.378 25.7639 189.046 26.4005V17.011H193.439V43.3652H189.046V41.7101C188.378 42.3467 187.614 42.856 186.722 43.2061C185.863 43.5562 184.844 43.7472 183.73 43.7472ZM183.73 28.724C182.998 28.724 182.298 28.8513 181.661 29.1378C181.024 29.4242 180.451 29.8062 179.974 30.2518C179.496 30.7292 179.114 31.2703 178.86 31.9387C178.605 32.6071 178.414 33.3073 178.414 34.0394C178.414 34.7396 178.541 35.4398 178.828 36.0764C179.114 36.713 179.496 37.2859 179.942 37.7634C180.419 38.2408 180.961 38.6227 181.629 38.9092C182.266 39.1956 182.966 39.323 183.698 39.323C184.43 39.323 185.131 39.1956 185.767 38.9092C186.404 38.6227 186.977 38.2408 187.455 37.7634C187.932 37.2859 188.314 36.713 188.569 36.0764C188.855 35.4398 188.983 34.7396 188.983 34.0394C188.983 33.3073 188.855 32.6071 188.569 31.9705C188.282 31.3339 187.9 30.761 187.455 30.2836C187.009 29.8062 186.436 29.4242 185.767 29.1696C185.099 28.915 184.462 28.724 183.73 28.724Z" fill="#2A1136"/>
<path d="M202.639 35.6934C202.989 36.7756 203.626 37.635 204.517 38.3352C205.409 39.0355 206.459 39.3538 207.669 39.3538C208.465 39.3538 209.197 39.1946 209.865 38.8763C210.534 38.558 211.107 38.1443 211.616 37.6032L215.277 40.054C214.386 41.1998 213.272 42.091 211.966 42.7594C210.661 43.4278 209.229 43.7461 207.701 43.7461C206.364 43.7461 205.122 43.4915 203.944 42.9822C202.767 42.473 201.716 41.7727 200.857 40.9134C199.997 40.054 199.297 39.0036 198.787 37.826C198.278 36.6483 198.023 35.3752 198.023 34.0702C198.023 32.7334 198.278 31.492 198.787 30.3144C199.297 29.1367 199.997 28.0864 200.857 27.227C201.716 26.3676 202.767 25.6674 203.944 25.1581C205.122 24.6489 206.364 24.3306 207.701 24.3306C209.038 24.3306 210.311 24.5852 211.489 25.0945C212.667 25.6037 213.685 26.304 214.577 27.1633C215.468 28.0545 216.137 29.0731 216.646 30.2507C217.155 31.4284 217.41 32.7015 217.41 34.0065C217.41 34.293 217.41 34.5476 217.378 34.8341C217.346 35.0887 217.314 35.3752 217.251 35.6616H202.639V35.6934ZM212.667 32.2241C212.317 31.2056 211.68 30.378 210.789 29.7096C209.897 29.0412 208.847 28.7229 207.701 28.7229C206.555 28.7229 205.536 29.0412 204.613 29.7096C203.722 30.3462 203.053 31.2056 202.671 32.2241H212.667Z" fill="#2A1136"/>
<path d="M234.186 32.734C234.186 32.1611 234.091 31.6518 233.868 31.1744C233.645 30.697 233.358 30.2514 233.008 29.9012C232.658 29.5193 232.212 29.2328 231.735 29.0419C231.257 28.8509 230.716 28.7236 230.143 28.7236C229.57 28.7236 229.061 28.8191 228.583 29.0419C228.106 29.2328 227.692 29.5193 227.31 29.9012C226.96 30.2832 226.673 30.697 226.451 31.1744C226.228 31.6518 226.132 32.1929 226.132 32.734V43.3648H221.739V24.6813H226.132V26.1454C226.642 25.5725 227.246 25.1588 227.915 24.8405C228.583 24.5222 229.347 24.363 230.143 24.363C231.321 24.363 232.403 24.5858 233.422 25.0314C234.441 25.477 235.332 26.0818 236.096 26.8457C236.86 27.6096 237.465 28.5008 237.911 29.5193C238.356 30.5378 238.579 31.62 238.579 32.7658V43.3966H234.186V32.734Z" fill="#2A1136"/>
<defs>
<clipPath id="clip0_363:154">
<rect width="44.2175" height="60.6705" fill="white" transform="translate(0 0.000244141)"/>
</clipPath>
</defs>
</svg>
